<svg width="23" height="22" viewBox="0 0 23 22" fill="none" xmlns="http://www.w3.org/2000/svg">
<path d="M1.5 8.65359L10.5033 1.45095C11.2548 0.849725 12.3227 0.849725 13.0742 1.45095L22.0775 8.65359" stroke="#0D6EFD" stroke-width="1.5" stroke-linecap="round" stroke-linejoin="round"/>
<path d="M9.19354 2.53109L5.07804 5.87494C4.33082 6.48206 3.9572 6.78562 3.75746 7.20525C3.55774 7.62487 3.55774 8.10626 3.55774 9.06906V12.769C3.55774 16.6491 3.55774 18.5892 4.76314 19.7946C5.96855 21 7.90861 21 11.7887 21C15.6688 21 17.609 21 18.8143 19.7946C20.0198 18.5892 20.0198 16.6491 20.0198 12.769V9.06906C20.0198 8.10626 20.0198 7.62487 19.8201 7.20525C19.6202 6.78562 19.2467 6.48206 18.4995 5.87494L14.384 2.53109C13.1409 1.52109 12.5194 1.01608 11.7887 1.01608C11.0581 1.01608 10.4366 1.52109 9.19354 2.53109Z" stroke="#0D6EFD" stroke-width="1.5"/>
<path d="M9.47363 15.0841H14.1036" stroke="#0D6EFD" stroke-width="1.5" stroke-linecap="round"/>
</svg>
